<mxfile host="app.diagrams.net" modified="2021-07-09T09:01:56.321Z" agent="5.0 (Macintosh; Intel Mac OS X 10_13_6) AppleWebKit/537.36 (KHTML, like Gecko) Chrome/91.0.4472.114 Safari/537.36" etag="S9Y60aBXUZPCKGf6iLOn" version="14.8.0" type="github">
  <diagram id="yc3j4aRurfEIkj48prlm" name="第 1 页">
    <mxGraphModel dx="946" dy="646" grid="1" gridSize="10" guides="1" tooltips="1" connect="1" arrows="1" fold="1" page="0" pageScale="1" pageWidth="827" pageHeight="1169" math="0" shadow="0">
      <root>
        <mxCell id="0" />
        <mxCell id="1" parent="0" />
        <mxCell id="ZQpTYlrvUTQmXjHgYQ69-4" style="edgeStyle=orthogonalEdgeStyle;orthogonalLoop=1;jettySize=auto;html=1;entryX=0.5;entryY=1;entryDx=0;entryDy=0;fontFamily=Comic Sans MS;fontSize=16;curved=1;sketch=1;" edge="1" parent="1" source="ZQpTYlrvUTQmXjHgYQ69-1" target="ZQpTYlrvUTQmXjHgYQ69-3">
          <mxGeometry relative="1" as="geometry" />
        </mxCell>
        <mxCell id="ZQpTYlrvUTQmXjHgYQ69-1" value="腾讯地图" style="rounded=0;whiteSpace=wrap;html=1;sketch=0;treeFolding=0;treeMoving=0;comic=1;fontSize=16;fontFamily=Comic Sans MS;fillColor=#f5f5f5;strokeColor=#666666;fontColor=#333333;" vertex="1" parent="1">
          <mxGeometry x="150" y="460" width="120" height="60" as="geometry" />
        </mxCell>
        <mxCell id="ZQpTYlrvUTQmXjHgYQ69-14" style="edgeStyle=orthogonalEdgeStyle;curved=1;sketch=1;orthogonalLoop=1;jettySize=auto;html=1;exitX=0.5;exitY=0;exitDx=0;exitDy=0;entryX=0.5;entryY=1;entryDx=0;entryDy=0;fontFamily=Comic Sans MS;fontSize=16;" edge="1" parent="1" source="ZQpTYlrvUTQmXjHgYQ69-2" target="ZQpTYlrvUTQmXjHgYQ69-6">
          <mxGeometry relative="1" as="geometry" />
        </mxCell>
        <mxCell id="ZQpTYlrvUTQmXjHgYQ69-2" value="腾讯导航" style="rounded=0;whiteSpace=wrap;html=1;sketch=0;treeFolding=0;treeMoving=0;comic=1;fontSize=16;fontFamily=Comic Sans MS;fillColor=#f5f5f5;strokeColor=#666666;fontColor=#333333;" vertex="1" parent="1">
          <mxGeometry x="310" y="460" width="120" height="60" as="geometry" />
        </mxCell>
        <mxCell id="ZQpTYlrvUTQmXjHgYQ69-9" style="edgeStyle=orthogonalEdgeStyle;curved=1;sketch=1;orthogonalLoop=1;jettySize=auto;html=1;exitX=0.5;exitY=0;exitDx=0;exitDy=0;entryX=0.5;entryY=1;entryDx=0;entryDy=0;fontFamily=Comic Sans MS;fontSize=16;" edge="1" parent="1" source="ZQpTYlrvUTQmXjHgYQ69-3" target="ZQpTYlrvUTQmXjHgYQ69-5">
          <mxGeometry relative="1" as="geometry" />
        </mxCell>
        <mxCell id="ZQpTYlrvUTQmXjHgYQ69-3" value="统一地图" style="rounded=0;whiteSpace=wrap;html=1;sketch=0;treeFolding=0;treeMoving=0;comic=1;fontSize=16;fontFamily=Comic Sans MS;fillColor=#dae8fc;strokeColor=#6c8ebf;" vertex="1" parent="1">
          <mxGeometry x="150" y="340" width="120" height="60" as="geometry" />
        </mxCell>
        <mxCell id="ZQpTYlrvUTQmXjHgYQ69-10" style="edgeStyle=orthogonalEdgeStyle;curved=1;sketch=1;orthogonalLoop=1;jettySize=auto;html=1;exitX=0.5;exitY=0;exitDx=0;exitDy=0;entryX=0.5;entryY=1;entryDx=0;entryDy=0;fontFamily=Comic Sans MS;fontSize=16;" edge="1" parent="1" source="ZQpTYlrvUTQmXjHgYQ69-5" target="ZQpTYlrvUTQmXjHgYQ69-7">
          <mxGeometry relative="1" as="geometry" />
        </mxCell>
        <mxCell id="ZQpTYlrvUTQmXjHgYQ69-11" style="edgeStyle=orthogonalEdgeStyle;curved=1;sketch=1;orthogonalLoop=1;jettySize=auto;html=1;exitX=1;exitY=0.5;exitDx=0;exitDy=0;entryX=0;entryY=0.5;entryDx=0;entryDy=0;fontFamily=Comic Sans MS;fontSize=16;" edge="1" parent="1" source="ZQpTYlrvUTQmXjHgYQ69-5" target="ZQpTYlrvUTQmXjHgYQ69-6">
          <mxGeometry relative="1" as="geometry" />
        </mxCell>
        <mxCell id="ZQpTYlrvUTQmXjHgYQ69-5" value="Qcs地图" style="rounded=0;whiteSpace=wrap;html=1;sketch=0;treeFolding=0;treeMoving=0;comic=1;fontSize=16;fontFamily=Comic Sans MS;fillColor=#d5e8d4;strokeColor=#82b366;" vertex="1" parent="1">
          <mxGeometry x="150" y="240" width="120" height="60" as="geometry" />
        </mxCell>
        <mxCell id="ZQpTYlrvUTQmXjHgYQ69-12" style="edgeStyle=orthogonalEdgeStyle;curved=1;sketch=1;orthogonalLoop=1;jettySize=auto;html=1;exitX=0.5;exitY=0;exitDx=0;exitDy=0;entryX=0.5;entryY=1;entryDx=0;entryDy=0;fontFamily=Comic Sans MS;fontSize=16;" edge="1" parent="1" source="ZQpTYlrvUTQmXjHgYQ69-6" target="ZQpTYlrvUTQmXjHgYQ69-8">
          <mxGeometry relative="1" as="geometry" />
        </mxCell>
        <mxCell id="ZQpTYlrvUTQmXjHgYQ69-20" style="edgeStyle=orthogonalEdgeStyle;curved=1;sketch=1;orthogonalLoop=1;jettySize=auto;html=1;exitX=1;exitY=0.5;exitDx=0;exitDy=0;entryX=0.5;entryY=1;entryDx=0;entryDy=0;fontFamily=Comic Sans MS;fontSize=16;" edge="1" parent="1" source="ZQpTYlrvUTQmXjHgYQ69-6" target="ZQpTYlrvUTQmXjHgYQ69-17">
          <mxGeometry relative="1" as="geometry" />
        </mxCell>
        <mxCell id="ZQpTYlrvUTQmXjHgYQ69-6" value="Qcs导航" style="rounded=0;whiteSpace=wrap;html=1;sketch=0;treeFolding=0;treeMoving=0;comic=1;fontSize=16;fontFamily=Comic Sans MS;fillColor=#d5e8d4;strokeColor=#82b366;" vertex="1" parent="1">
          <mxGeometry x="310" y="240" width="120" height="60" as="geometry" />
        </mxCell>
        <mxCell id="ZQpTYlrvUTQmXjHgYQ69-13" style="edgeStyle=orthogonalEdgeStyle;curved=1;sketch=1;orthogonalLoop=1;jettySize=auto;html=1;exitX=1;exitY=0.5;exitDx=0;exitDy=0;entryX=0;entryY=0.5;entryDx=0;entryDy=0;fontFamily=Comic Sans MS;fontSize=16;" edge="1" parent="1" source="ZQpTYlrvUTQmXjHgYQ69-7" target="ZQpTYlrvUTQmXjHgYQ69-8">
          <mxGeometry relative="1" as="geometry" />
        </mxCell>
        <mxCell id="ZQpTYlrvUTQmXjHgYQ69-18" style="edgeStyle=orthogonalEdgeStyle;curved=1;sketch=1;orthogonalLoop=1;jettySize=auto;html=1;exitX=0.5;exitY=0;exitDx=0;exitDy=0;entryX=0.5;entryY=1;entryDx=0;entryDy=0;fontFamily=Comic Sans MS;fontSize=16;" edge="1" parent="1" source="ZQpTYlrvUTQmXjHgYQ69-7" target="ZQpTYlrvUTQmXjHgYQ69-15">
          <mxGeometry relative="1" as="geometry" />
        </mxCell>
        <mxCell id="ZQpTYlrvUTQmXjHgYQ69-7" value="Flutter地图" style="rounded=0;whiteSpace=wrap;html=1;sketch=0;treeFolding=0;treeMoving=0;comic=1;fontSize=16;fontFamily=Comic Sans MS;fillColor=#ffe6cc;strokeColor=#d79b00;" vertex="1" parent="1">
          <mxGeometry x="150" y="130" width="120" height="60" as="geometry" />
        </mxCell>
        <mxCell id="ZQpTYlrvUTQmXjHgYQ69-19" style="edgeStyle=orthogonalEdgeStyle;curved=1;sketch=1;orthogonalLoop=1;jettySize=auto;html=1;exitX=0.5;exitY=0;exitDx=0;exitDy=0;entryX=0.5;entryY=1;entryDx=0;entryDy=0;fontFamily=Comic Sans MS;fontSize=16;" edge="1" parent="1" source="ZQpTYlrvUTQmXjHgYQ69-8" target="ZQpTYlrvUTQmXjHgYQ69-16">
          <mxGeometry relative="1" as="geometry" />
        </mxCell>
        <mxCell id="ZQpTYlrvUTQmXjHgYQ69-8" value="Flutter导航" style="rounded=0;whiteSpace=wrap;html=1;sketch=0;treeFolding=0;treeMoving=0;comic=1;fontSize=16;fontFamily=Comic Sans MS;fillColor=#ffe6cc;strokeColor=#d79b00;" vertex="1" parent="1">
          <mxGeometry x="310" y="130" width="120" height="60" as="geometry" />
        </mxCell>
        <mxCell id="ZQpTYlrvUTQmXjHgYQ69-15" value="配送" style="rounded=0;whiteSpace=wrap;html=1;sketch=0;treeFolding=0;treeMoving=0;comic=1;fontSize=16;fontFamily=Comic Sans MS;fillColor=#fff2cc;strokeColor=#d6b656;" vertex="1" parent="1">
          <mxGeometry x="150" y="20" width="120" height="60" as="geometry" />
        </mxCell>
        <mxCell id="ZQpTYlrvUTQmXjHgYQ69-16" value="司机端" style="rounded=0;whiteSpace=wrap;html=1;sketch=0;treeFolding=0;treeMoving=0;comic=1;fontSize=16;fontFamily=Comic Sans MS;fillColor=#fff2cc;strokeColor=#d6b656;" vertex="1" parent="1">
          <mxGeometry x="310" y="20" width="120" height="60" as="geometry" />
        </mxCell>
        <mxCell id="ZQpTYlrvUTQmXjHgYQ69-17" value="车机端" style="rounded=0;whiteSpace=wrap;html=1;sketch=0;treeFolding=0;treeMoving=0;comic=1;fontSize=16;fontFamily=Comic Sans MS;fillColor=#fff2cc;strokeColor=#d6b656;" vertex="1" parent="1">
          <mxGeometry x="480" y="20" width="120" height="60" as="geometry" />
        </mxCell>
      </root>
    </mxGraphModel>
  </diagram>
</mxfile>
